Coordinates
version=1
nRows=7
nColumns=40
inDegrees=yes

Units are S.I. units (second, meters, Newtons, ...)
Angles are in degrees.

endheader
time	pelvis_tilt	pelvis_list	pelvis_rotation	pelvis_tx	pelvis_ty	pelvis_tz	hip_flexion_r	hip_adduction_r	hip_rotation_r	knee_angle_r	knee_angle_r_beta	ankle_angle_r	subtalar_angle_r	mtp_angle_r	hip_flexion_l	hip_adduction_l	hip_rotation_l	knee_angle_l	knee_angle_l_beta	ankle_angle_l	subtalar_angle_l	mtp_angle_l	lumbar_extension	lumbar_bending	lumbar_rotation	arm_flex_r	arm_add_r	arm_rot_r	elbow_flex_r	pro_sup_r	wrist_flex_r	wrist_dev_r	arm_flex_l	arm_add_l	arm_rot_l	elbow_flex_l	pro_sup_l	wrist_flex_l	wrist_dev_l
     52.33800000	     -4.87119709	     -5.15067285	     -3.28783319	      0.91872633	      0.93439208	      0.41838898	     35.76121436	     -3.38313220	     -5.62573275	     50.80787929	     50.80787929	     -2.75483161	    -13.69026162	     -0.98319817	     12.17830784	     -4.56694361	     -6.82854644	     20.03158635	     20.03158635	     14.52065495	    -12.74018122	      2.93626183	    -12.17834630	      6.55322165	      2.82485853	      8.15085274	    -12.94962159	     -0.64412393	     30.04984970	     46.61399978	      0.00000000	      0.00000000	     16.99210209	    -17.02048558	     -5.63381642	     64.51774038	     46.85146681	      0.00000000	      0.00000000
     52.35100000	     -5.05737302	     -5.30853761	     -3.49357071	      0.91741675	      0.93434824	      0.41888117	     35.74342725	     -2.93368771	     -5.72825736	     46.76882113	     46.76882113	     -2.20782565	    -12.04793783	     -1.12305152	     11.83571925	     -4.75606787	     -6.93608210	     19.78667497	     19.78667497	     14.72801705	    -12.70578072	      2.84793928	    -12.11120614	      6.85702695	      2.52265970	      6.38291141	    -13.15462032	     -0.64222090	     29.26485223	     46.62739692	      0.00000000	      0.00000000	     17.97420993	    -17.70551544	     -6.14881695	     65.51780537	     46.91492288	      0.00000000	      0.00000000
     52.36400000	     -5.18681286	     -5.43285289	     -3.71946110	      0.91615885	      0.93429328	      0.41957364	     35.46871583	     -2.58657055	     -6.09142400	     42.44071976	     42.44071976	     -1.73642115	     -9.90614132	     -1.53526111	     11.36528310	     -4.92013055	     -7.12841057	     19.42440832	     19.42440832	     14.93607364	    -12.59307474	      2.72106844	    -12.24587679	      6.98006517	      2.65381049	      4.37822426	    -13.47561750	     -0.66584167	     28.41130243	     46.64157918	      0.00000000	      0.00000000	     18.97214671	    -18.02066079	     -6.81340314	     67.38749701	     47.00485790	      0.00000000	      0.00000000
     52.37700000	     -5.37139729	     -5.44039332	     -3.93226899	      0.91501645	      0.93390113	      0.42025653	     35.05492305	     -2.32849825	     -6.48257421	     37.80473752	     37.80473752	     -1.96887241	     -8.03501680	     -3.66918384	     10.95694726	     -4.95606033	     -7.33053212	     19.06128047	     19.06128047	     15.02941169	    -12.52558046	      2.21720921	    -12.30266074	      7.00289127	      2.13775687	      2.53068778	    -13.59507774	     -1.01836267	     28.32696644	     46.62401195	      0.00000000	      0.00000000	     18.88262383	    -18.60960438	     -8.52670673	     71.10406071	     47.22441683	      0.00000000	      0.00000000
     52.39000000	     -5.57125607	     -5.48781066	     -4.09704894	      0.91397664	      0.93347038	      0.42108572	     34.52232402	     -1.99071496	     -7.00771640	     33.15751594	     33.15751594	     -1.55056218	     -5.88327758	     -3.30617652	     10.59365364	     -5.03841154	     -7.44969779	     18.77072751	     18.77072751	     15.25211335	    -12.43197589	      2.05082096	    -12.21714507	      7.10743722	      2.07411791	      0.61887835	    -13.82697108	     -1.03813246	     27.66170171	     46.63101588	      0.00000000	      0.00000000	     19.86641185	    -19.02591773	     -8.97098472	     72.34366164	     47.28811770	      0.00000000	      0.00000000
     52.40300000	     -5.76828465	     -5.47736949	     -4.25980981	      0.91315749	      0.93287719	      0.42201439	     33.86093746	     -1.69636285	     -7.70903668	     28.55324280	     28.55324280	     -1.17448082	     -3.60551550	     -2.67646436	     10.19151183	     -5.06097851	     -7.60302410	     18.43756675	     18.43756675	     15.48014801	    -12.33208076	      1.82001816	    -12.11564870	      7.12807460	      2.03441483	     -1.34028536	    -13.99539095	     -1.14883607	     27.23351289	     46.63432280	      0.00000000	      0.00000000	     20.70165232	    -19.40857199	     -9.43618488	     73.91012950	     47.35992417	      0.00000000	      0.00000000
     52.41600000	     -5.88912950	     -5.33114932	     -4.41270965	      0.91259332	      0.93211619	      0.42299684	     33.16457810	     -1.59254194	     -8.72360899	     24.40961700	     24.40961700	     -0.51296264	     -0.80268400	     -1.11260710	      9.67613295	     -4.93716588	     -7.82092002	     18.06524157	     18.06524157	     15.61991992	    -12.14815924	      1.14367995	    -12.11939143	      6.97904688	      1.90088976	     -3.52918570	    -14.11448915	     -1.71814372	     27.83760720	     46.61274191	      0.00000000	      0.00000000	     21.04764941	    -19.84114103	    -10.23658229	     76.59154191	     47.48830549	      0.00000000	      0.00000000
